<?xml version="1.0" encoding="utf-8" standalone="no"?>
<!DOCTYPE svg PUBLIC "-//W3C//DTD SVG 1.1//EN"
  "http://www.w3.org/Graphics/SVG/1.1/DTD/svg11.dtd">
<svg xmlns:xlink="http://www.w3.org/1999/xlink" width="460.8pt" height="345.6pt" viewBox="0 0 460.8 345.6" xmlns="http://www.w3.org/2000/svg" version="1.1">
 <metadata>
  <rdf:RDF xmlns:dc="http://purl.org/dc/elements/1.1/" xmlns:cc="http://creativecommons.org/ns#" xmlns:rdf="http://www.w3.org/1999/02/22-rdf-syntax-ns#">
   <cc:Work>
    <dc:type rdf:resource="http://purl.org/dc/dcmitype/StillImage"/>
    <dc:date>2024-01-18T02:18:45.304159</dc:date>
    <dc:format>image/svg+xml</dc:format>
    <dc:creator>
     <cc:Agent>
      <dc:title>Matplotlib v3.5.2, https://matplotlib.org/</dc:title>
     </cc:Agent>
    </dc:creator>
   </cc:Work>
  </rdf:RDF>
 </metadata>
 <defs>
  <style type="text/css">*{stroke-linejoin: round; stroke-linecap: butt}</style>
 </defs>
 <g id="figure_1">
  <g id="patch_1">
   <path d="M 0 345.6 
L 460.8 345.6 
L 460.8 0 
L 0 0 
z
" style="fill: #ffffff"/>
  </g>
  <g id="axes_1">
   <g id="patch_2">
    <path d="M 57.6 307.584 
L 414.72 307.584 
L 414.72 41.472 
L 57.6 41.472 
z
" style="fill: #ffffff"/>
   </g>
   <g id="matplotlib.axis_1">
    <g id="xtick_1">
     <g id="line2d_1">
      <defs>
       <path id="mf1489add75" d="M 0 0 
L 0 3.5 
" style="stroke: #000000; stroke-width: 0.8"/>
      </defs>
      <g>
       <use xlink:href="#mf1489add75" x="73.832727" y="307.584" style="stroke: #000000; stroke-width: 0.8"/>
      </g>
     </g>
     <g id="text_1">
      <!-- 0 -->
      <g transform="translate(70.651477 322.182437)scale(0.1 -0.1)">
       <defs>
        <path id="DejaVuSans-30" d="M 2034 4250 
Q 1547 4250 1301 3770 
Q 1056 3291 1056 2328 
Q 1056 1369 1301 889 
Q 1547 409 2034 409 
Q 2525 409 2770 889 
Q 3016 1369 3016 2328 
Q 3016 3291 2770 3770 
Q 2525 4250 2034 4250 
z
M 2034 4750 
Q 2819 4750 3233 4129 
Q 3647 3509 3647 2328 
Q 3647 1150 3233 529 
Q 2819 -91 2034 -91 
Q 1250 -91 836 529 
Q 422 1150 422 2328 
Q 422 3509 836 4129 
Q 1250 4750 2034 4750 
z
" transform="scale(0.015625)"/>
       </defs>
       <use xlink:href="#DejaVuSans-30"/>
      </g>
     </g>
    </g>
    <g id="xtick_2">
     <g id="line2d_2">
      <g>
       <use xlink:href="#mf1489add75" x="125.503103" y="307.584" style="stroke: #000000; stroke-width: 0.8"/>
      </g>
     </g>
     <g id="text_2">
      <!-- 1 -->
      <g transform="translate(122.321853 322.182437)scale(0.1 -0.1)">
       <defs>
        <path id="DejaVuSans-31" d="M 794 531 
L 1825 531 
L 1825 4091 
L 703 3866 
L 703 4441 
L 1819 4666 
L 2450 4666 
L 2450 531 
L 3481 531 
L 3481 0 
L 794 0 
L 794 531 
z
" transform="scale(0.015625)"/>
       </defs>
       <use xlink:href="#DejaVuSans-31"/>
      </g>
     </g>
    </g>
    <g id="xtick_3">
     <g id="line2d_3">
      <g>
       <use xlink:href="#mf1489add75" x="177.173479" y="307.584" style="stroke: #000000; stroke-width: 0.8"/>
      </g>
     </g>
     <g id="text_3">
      <!-- 2 -->
      <g transform="translate(173.992229 322.182437)scale(0.1 -0.1)">
       <defs>
        <path id="DejaVuSans-32" d="M 1228 531 
L 3431 531 
L 3431 0 
L 469 0 
L 469 531 
Q 828 903 1448 1529 
Q 2069 2156 2228 2338 
Q 2531 2678 2651 2914 
Q 2772 3150 2772 3378 
Q 2772 3750 2511 3984 
Q 2250 4219 1831 4219 
Q 1534 4219 1204 4116 
Q 875 4013 500 3803 
L 500 4441 
Q 881 4594 1212 4672 
Q 1544 4750 1819 4750 
Q 2544 4750 2975 4387 
Q 3406 4025 3406 3419 
Q 3406 3131 3298 2873 
Q 3191 2616 2906 2266 
Q 2828 2175 2409 1742 
Q 1991 1309 1228 531 
z
" transform="scale(0.015625)"/>
       </defs>
       <use xlink:href="#DejaVuSans-32"/>
      </g>
     </g>
    </g>
    <g id="xtick_4">
     <g id="line2d_4">
      <g>
       <use xlink:href="#mf1489add75" x="228.843854" y="307.584" style="stroke: #000000; stroke-width: 0.8"/>
      </g>
     </g>
     <g id="text_4">
      <!-- 3 -->
      <g transform="translate(225.662604 322.182437)scale(0.1 -0.1)">
       <defs>
        <path id="DejaVuSans-33" d="M 2597 2516 
Q 3050 2419 3304 2112 
Q 3559 1806 3559 1356 
Q 3559 666 3084 287 
Q 2609 -91 1734 -91 
Q 1441 -91 1130 -33 
Q 819 25 488 141 
L 488 750 
Q 750 597 1062 519 
Q 1375 441 1716 441 
Q 2309 441 2620 675 
Q 2931 909 2931 1356 
Q 2931 1769 2642 2001 
Q 2353 2234 1838 2234 
L 1294 2234 
L 1294 2753 
L 1863 2753 
Q 2328 2753 2575 2939 
Q 2822 3125 2822 3475 
Q 2822 3834 2567 4026 
Q 2313 4219 1838 4219 
Q 1578 4219 1281 4162 
Q 984 4106 628 3988 
L 628 4550 
Q 988 4650 1302 4700 
Q 1616 4750 1894 4750 
Q 2613 4750 3031 4423 
Q 3450 4097 3450 3541 
Q 3450 3153 3228 2886 
Q 3006 2619 2597 2516 
z
" transform="scale(0.015625)"/>
       </defs>
       <use xlink:href="#DejaVuSans-33"/>
      </g>
     </g>
    </g>
    <g id="xtick_5">
     <g id="line2d_5">
      <g>
       <use xlink:href="#mf1489add75" x="280.51423" y="307.584" style="stroke: #000000; stroke-width: 0.8"/>
      </g>
     </g>
     <g id="text_5">
      <!-- 4 -->
      <g transform="translate(277.33298 322.182437)scale(0.1 -0.1)">
       <defs>
        <path id="DejaVuSans-34" d="M 2419 4116 
L 825 1625 
L 2419 1625 
L 2419 4116 
z
M 2253 4666 
L 3047 4666 
L 3047 1625 
L 3713 1625 
L 3713 1100 
L 3047 1100 
L 3047 0 
L 2419 0 
L 2419 1100 
L 313 1100 
L 313 1709 
L 2253 4666 
z
" transform="scale(0.015625)"/>
       </defs>
       <use xlink:href="#DejaVuSans-34"/>
      </g>
     </g>
    </g>
    <g id="xtick_6">
     <g id="line2d_6">
      <g>
       <use xlink:href="#mf1489add75" x="332.184606" y="307.584" style="stroke: #000000; stroke-width: 0.8"/>
      </g>
     </g>
     <g id="text_6">
      <!-- 5 -->
      <g transform="translate(329.003356 322.182437)scale(0.1 -0.1)">
       <defs>
        <path id="DejaVuSans-35" d="M 691 4666 
L 3169 4666 
L 3169 4134 
L 1269 4134 
L 1269 2991 
Q 1406 3038 1543 3061 
Q 1681 3084 1819 3084 
Q 2600 3084 3056 2656 
Q 3513 2228 3513 1497 
Q 3513 744 3044 326 
Q 2575 -91 1722 -91 
Q 1428 -91 1123 -41 
Q 819 9 494 109 
L 494 744 
Q 775 591 1075 516 
Q 1375 441 1709 441 
Q 2250 441 2565 725 
Q 2881 1009 2881 1497 
Q 2881 1984 2565 2268 
Q 2250 2553 1709 2553 
Q 1456 2553 1204 2497 
Q 953 2441 691 2322 
L 691 4666 
z
" transform="scale(0.015625)"/>
       </defs>
       <use xlink:href="#DejaVuSans-35"/>
      </g>
     </g>
    </g>
    <g id="xtick_7">
     <g id="line2d_7">
      <g>
       <use xlink:href="#mf1489add75" x="383.854982" y="307.584" style="stroke: #000000; stroke-width: 0.8"/>
      </g>
     </g>
     <g id="text_7">
      <!-- 6 -->
      <g transform="translate(380.673732 322.182437)scale(0.1 -0.1)">
       <defs>
        <path id="DejaVuSans-36" d="M 2113 2584 
Q 1688 2584 1439 2293 
Q 1191 2003 1191 1497 
Q 1191 994 1439 701 
Q 1688 409 2113 409 
Q 2538 409 2786 701 
Q 3034 994 3034 1497 
Q 3034 2003 2786 2293 
Q 2538 2584 2113 2584 
z
M 3366 4563 
L 3366 3988 
Q 3128 4100 2886 4159 
Q 2644 4219 2406 4219 
Q 1781 4219 1451 3797 
Q 1122 3375 1075 2522 
Q 1259 2794 1537 2939 
Q 1816 3084 2150 3084 
Q 2853 3084 3261 2657 
Q 3669 2231 3669 1497 
Q 3669 778 3244 343 
Q 2819 -91 2113 -91 
Q 1303 -91 875 529 
Q 447 1150 447 2328 
Q 447 3434 972 4092 
Q 1497 4750 2381 4750 
Q 2619 4750 2861 4703 
Q 3103 4656 3366 4563 
z
" transform="scale(0.015625)"/>
       </defs>
       <use xlink:href="#DejaVuSans-36"/>
      </g>
     </g>
    </g>
   </g>
   <g id="matplotlib.axis_2">
    <g id="ytick_1">
     <g id="line2d_8">
      <defs>
       <path id="m324befc3e3" d="M 0 0 
L -3.5 0 
" style="stroke: #000000; stroke-width: 0.8"/>
      </defs>
      <g>
       <use xlink:href="#m324befc3e3" x="57.6" y="295.503227" style="stroke: #000000; stroke-width: 0.8"/>
      </g>
     </g>
     <g id="text_8">
      <!-- −1.00 -->
      <g transform="translate(19.954687 299.302446)scale(0.1 -0.1)">
       <defs>
        <path id="DejaVuSans-2212" d="M 678 2272 
L 4684 2272 
L 4684 1741 
L 678 1741 
L 678 2272 
z
" transform="scale(0.015625)"/>
        <path id="DejaVuSans-2e" d="M 684 794 
L 1344 794 
L 1344 0 
L 684 0 
L 684 794 
z
" transform="scale(0.015625)"/>
       </defs>
       <use xlink:href="#DejaVuSans-2212"/>
       <use xlink:href="#DejaVuSans-31" x="83.789062"/>
       <use xlink:href="#DejaVuSans-2e" x="147.412109"/>
       <use xlink:href="#DejaVuSans-30" x="179.199219"/>
       <use xlink:href="#DejaVuSans-30" x="242.822266"/>
      </g>
     </g>
    </g>
    <g id="ytick_2">
     <g id="line2d_9">
      <g>
       <use xlink:href="#m324befc3e3" x="57.6" y="265.259421" style="stroke: #000000; stroke-width: 0.8"/>
      </g>
     </g>
     <g id="text_9">
      <!-- −0.75 -->
      <g transform="translate(19.954687 269.058639)scale(0.1 -0.1)">
       <defs>
        <path id="DejaVuSans-37" d="M 525 4666 
L 3525 4666 
L 3525 4397 
L 1831 0 
L 1172 0 
L 2766 4134 
L 525 4134 
L 525 4666 
z
" transform="scale(0.015625)"/>
       </defs>
       <use xlink:href="#DejaVuSans-2212"/>
       <use xlink:href="#DejaVuSans-30" x="83.789062"/>
       <use xlink:href="#DejaVuSans-2e" x="147.412109"/>
       <use xlink:href="#DejaVuSans-37" x="179.199219"/>
       <use xlink:href="#DejaVuSans-35" x="242.822266"/>
      </g>
     </g>
    </g>
    <g id="ytick_3">
     <g id="line2d_10">
      <g>
       <use xlink:href="#m324befc3e3" x="57.6" y="235.015614" style="stroke: #000000; stroke-width: 0.8"/>
      </g>
     </g>
     <g id="text_10">
      <!-- −0.50 -->
      <g transform="translate(19.954687 238.814832)scale(0.1 -0.1)">
       <use xlink:href="#DejaVuSans-2212"/>
       <use xlink:href="#DejaVuSans-30" x="83.789062"/>
       <use xlink:href="#DejaVuSans-2e" x="147.412109"/>
       <use xlink:href="#DejaVuSans-35" x="179.199219"/>
       <use xlink:href="#DejaVuSans-30" x="242.822266"/>
      </g>
     </g>
    </g>
    <g id="ytick_4">
     <g id="line2d_11">
      <g>
       <use xlink:href="#m324befc3e3" x="57.6" y="204.771807" style="stroke: #000000; stroke-width: 0.8"/>
      </g>
     </g>
     <g id="text_11">
      <!-- −0.25 -->
      <g transform="translate(19.954687 208.571026)scale(0.1 -0.1)">
       <use xlink:href="#DejaVuSans-2212"/>
       <use xlink:href="#DejaVuSans-30" x="83.789062"/>
       <use xlink:href="#DejaVuSans-2e" x="147.412109"/>
       <use xlink:href="#DejaVuSans-32" x="179.199219"/>
       <use xlink:href="#DejaVuSans-35" x="242.822266"/>
      </g>
     </g>
    </g>
    <g id="ytick_5">
     <g id="line2d_12">
      <g>
       <use xlink:href="#m324befc3e3" x="57.6" y="174.528" style="stroke: #000000; stroke-width: 0.8"/>
      </g>
     </g>
     <g id="text_12">
      <!-- 0.00 -->
      <g transform="translate(28.334375 178.327219)scale(0.1 -0.1)">
       <use xlink:href="#DejaVuSans-30"/>
       <use xlink:href="#DejaVuSans-2e" x="63.623047"/>
       <use xlink:href="#DejaVuSans-30" x="95.410156"/>
       <use xlink:href="#DejaVuSans-30" x="159.033203"/>
      </g>
     </g>
    </g>
    <g id="ytick_6">
     <g id="line2d_13">
      <g>
       <use xlink:href="#m324befc3e3" x="57.6" y="144.284193" style="stroke: #000000; stroke-width: 0.8"/>
      </g>
     </g>
     <g id="text_13">
      <!-- 0.25 -->
      <g transform="translate(28.334375 148.083412)scale(0.1 -0.1)">
       <use xlink:href="#DejaVuSans-30"/>
       <use xlink:href="#DejaVuSans-2e" x="63.623047"/>
       <use xlink:href="#DejaVuSans-32" x="95.410156"/>
       <use xlink:href="#DejaVuSans-35" x="159.033203"/>
      </g>
     </g>
    </g>
    <g id="ytick_7">
     <g id="line2d_14">
      <g>
       <use xlink:href="#m324befc3e3" x="57.6" y="114.040386" style="stroke: #000000; stroke-width: 0.8"/>
      </g>
     </g>
     <g id="text_14">
      <!-- 0.50 -->
      <g transform="translate(28.334375 117.839605)scale(0.1 -0.1)">
       <use xlink:href="#DejaVuSans-30"/>
       <use xlink:href="#DejaVuSans-2e" x="63.623047"/>
       <use xlink:href="#DejaVuSans-35" x="95.410156"/>
       <use xlink:href="#DejaVuSans-30" x="159.033203"/>
      </g>
     </g>
    </g>
    <g id="ytick_8">
     <g id="line2d_15">
      <g>
       <use xlink:href="#m324befc3e3" x="57.6" y="83.796579" style="stroke: #000000; stroke-width: 0.8"/>
      </g>
     </g>
     <g id="text_15">
      <!-- 0.75 -->
      <g transform="translate(28.334375 87.595798)scale(0.1 -0.1)">
       <use xlink:href="#DejaVuSans-30"/>
       <use xlink:href="#DejaVuSans-2e" x="63.623047"/>
       <use xlink:href="#DejaVuSans-37" x="95.410156"/>
       <use xlink:href="#DejaVuSans-35" x="159.033203"/>
      </g>
     </g>
    </g>
    <g id="ytick_9">
     <g id="line2d_16">
      <g>
       <use xlink:href="#m324befc3e3" x="57.6" y="53.552773" style="stroke: #000000; stroke-width: 0.8"/>
      </g>
     </g>
     <g id="text_16">
      <!-- 1.00 -->
      <g transform="translate(28.334375 57.351991)scale(0.1 -0.1)">
       <use xlink:href="#DejaVuSans-31"/>
       <use xlink:href="#DejaVuSans-2e" x="63.623047"/>
       <use xlink:href="#DejaVuSans-30" x="95.410156"/>
       <use xlink:href="#DejaVuSans-30" x="159.033203"/>
      </g>
     </g>
    </g>
   </g>
   <g id="line2d_17">
    <defs>
     <path id="m232818d787" d="M 0 3 
C 0.795609 3 1.55874 2.683901 2.12132 2.12132 
C 2.683901 1.55874 3 0.795609 3 0 
C 3 -0.795609 2.683901 -1.55874 2.12132 -2.12132 
C 1.55874 -2.683901 0.795609 -3 0 -3 
C -0.795609 -3 -1.55874 -2.683901 -2.12132 -2.12132 
C -2.683901 -1.55874 -3 -0.795609 -3 0 
C -3 0.795609 -2.683901 1.55874 -2.12132 2.12132 
C -1.55874 2.683901 -0.795609 3 0 3 
z
" style="stroke: #ff0000"/>
    </defs>
    <g clip-path="url(#pb09d5f542a)">
     <use xlink:href="#m232818d787" x="73.832727" y="174.528" style="fill: #ff0000; stroke: #ff0000"/>
     <use xlink:href="#m232818d787" x="77.112066" y="166.855277" style="fill: #ff0000; stroke: #ff0000"/>
     <use xlink:href="#m232818d787" x="80.391405" y="159.213449" style="fill: #ff0000; stroke: #ff0000"/>
     <use xlink:href="#m232818d787" x="83.670744" y="151.633288" style="fill: #ff0000; stroke: #ff0000"/>
     <use xlink:href="#m232818d787" x="86.950083" y="144.145315" style="fill: #ff0000; stroke: #ff0000"/>
     <use xlink:href="#m232818d787" x="90.229421" y="136.779683" style="fill: #ff0000; stroke: #ff0000"/>
     <use xlink:href="#m232818d787" x="93.50876" y="129.56605" style="fill: #ff0000; stroke: #ff0000"/>
     <use xlink:href="#m232818d787" x="96.788099" y="122.533463" style="fill: #ff0000; stroke: #ff0000"/>
     <use xlink:href="#m232818d787" x="100.067438" y="115.710239" style="fill: #ff0000; stroke: #ff0000"/>
     <use xlink:href="#m232818d787" x="103.346777" y="109.123854" style="fill: #ff0000; stroke: #ff0000"/>
     <use xlink:href="#m232818d787" x="106.626116" y="102.800828" style="fill: #ff0000; stroke: #ff0000"/>
     <use xlink:href="#m232818d787" x="109.905455" y="96.766623" style="fill: #ff0000; stroke: #ff0000"/>
     <use xlink:href="#m232818d787" x="113.184793" y="91.045535" style="fill: #ff0000; stroke: #ff0000"/>
     <use xlink:href="#m232818d787" x="116.464132" y="85.660601" style="fill: #ff0000; stroke: #ff0000"/>
     <use xlink:href="#m232818d787" x="119.743471" y="80.633505" style="fill: #ff0000; stroke: #ff0000"/>
     <use xlink:href="#m232818d787" x="123.02281" y="75.984489" style="fill: #ff0000; stroke: #ff0000"/>
     <use xlink:href="#m232818d787" x="126.302149" y="71.732273" style="fill: #ff0000; stroke: #ff0000"/>
     <use xlink:href="#m232818d787" x="129.581488" y="67.893979" style="fill: #ff0000; stroke: #ff0000"/>
     <use xlink:href="#m232818d787" x="132.860826" y="64.485062" style="fill: #ff0000; stroke: #ff0000"/>
     <use xlink:href="#m232818d787" x="136.140165" y="61.51925" style="fill: #ff0000; stroke: #ff0000"/>
     <use xlink:href="#m232818d787" x="139.419504" y="59.008484" style="fill: #ff0000; stroke: #ff0000"/>
     <use xlink:href="#m232818d787" x="142.698843" y="56.962874" style="fill: #ff0000; stroke: #ff0000"/>
     <use xlink:href="#m232818d787" x="145.978182" y="55.390658" style="fill: #ff0000; stroke: #ff0000"/>
     <use xlink:href="#m232818d787" x="149.257521" y="54.298166" style="fill: #ff0000; stroke: #ff0000"/>
     <use xlink:href="#m232818d787" x="152.53686" y="53.689796" style="fill: #ff0000; stroke: #ff0000"/>
     <use xlink:href="#m232818d787" x="155.816198" y="53.568" style="fill: #ff0000; stroke: #ff0000"/>
     <use xlink:href="#m232818d787" x="159.095537" y="53.933267" style="fill: #ff0000; stroke: #ff0000"/>
     <use xlink:href="#m232818d787" x="162.374876" y="54.784126" style="fill: #ff0000; stroke: #ff0000"/>
     <use xlink:href="#m232818d787" x="165.654215" y="56.117151" style="fill: #ff0000; stroke: #ff0000"/>
     <use xlink:href="#m232818d787" x="168.933554" y="57.926976" style="fill: #ff0000; stroke: #ff0000"/>
     <use xlink:href="#m232818d787" x="172.212893" y="60.206311" style="fill: #ff0000; stroke: #ff0000"/>
     <use xlink:href="#m232818d787" x="175.492231" y="62.945979" style="fill: #ff0000; stroke: #ff0000"/>
     <use xlink:href="#m232818d787" x="178.77157" y="66.134949" style="fill: #ff0000; stroke: #ff0000"/>
     <use xlink:href="#m232818d787" x="182.050909" y="69.76038" style="fill: #ff0000; stroke: #ff0000"/>
     <use xlink:href="#m232818d787" x="185.330248" y="73.807672" style="fill: #ff0000; stroke: #ff0000"/>
     <use xlink:href="#m232818d787" x="188.609587" y="78.26053" style="fill: #ff0000; stroke: #ff0000"/>
     <use xlink:href="#m232818d787" x="191.888926" y="83.101023" style="fill: #ff0000; stroke: #ff0000"/>
     <use xlink:href="#m232818d787" x="195.168264" y="88.309661" style="fill: #ff0000; stroke: #ff0000"/>
     <use xlink:href="#m232818d787" x="198.447603" y="93.865469" style="fill: #ff0000; stroke: #ff0000"/>
     <use xlink:href="#m232818d787" x="201.726942" y="99.746076" style="fill: #ff0000; stroke: #ff0000"/>
     <use xlink:href="#m232818d787" x="205.006281" y="105.927804" style="fill: #ff0000; stroke: #ff0000"/>
     <use xlink:href="#m232818d787" x="208.28562" y="112.385761" style="fill: #ff0000; stroke: #ff0000"/>
     <use xlink:href="#m232818d787" x="211.564959" y="119.093942" style="fill: #ff0000; stroke: #ff0000"/>
     <use xlink:href="#m232818d787" x="214.844298" y="126.025337" style="fill: #ff0000; stroke: #ff0000"/>
     <use xlink:href="#m232818d787" x="218.123636" y="133.152035" style="fill: #ff0000; stroke: #ff0000"/>
     <use xlink:href="#m232818d787" x="221.402975" y="140.44534" style="fill: #ff0000; stroke: #ff0000"/>
     <use xlink:href="#m232818d787" x="224.682314" y="147.875883" style="fill: #ff0000; stroke: #ff0000"/>
     <use xlink:href="#m232818d787" x="227.961653" y="155.413745" style="fill: #ff0000; stroke: #ff0000"/>
     <use xlink:href="#m232818d787" x="231.240992" y="163.028574" style="fill: #ff0000; stroke: #ff0000"/>
     <use xlink:href="#m232818d787" x="234.520331" y="170.689706" style="fill: #ff0000; stroke: #ff0000"/>
     <use xlink:href="#m232818d787" x="237.799669" y="178.366294" style="fill: #ff0000; stroke: #ff0000"/>
     <use xlink:href="#m232818d787" x="241.079008" y="186.027426" style="fill: #ff0000; stroke: #ff0000"/>
     <use xlink:href="#m232818d787" x="244.358347" y="193.642255" style="fill: #ff0000; stroke: #ff0000"/>
     <use xlink:href="#m232818d787" x="247.637686" y="201.180117" style="fill: #ff0000; stroke: #ff0000"/>
     <use xlink:href="#m232818d787" x="250.917025" y="208.61066" style="fill: #ff0000; stroke: #ff0000"/>
     <use xlink:href="#m232818d787" x="254.196364" y="215.903965" style="fill: #ff0000; stroke: #ff0000"/>
     <use xlink:href="#m232818d787" x="257.475702" y="223.030663" style="fill: #ff0000; stroke: #ff0000"/>
     <use xlink:href="#m232818d787" x="260.755041" y="229.962058" style="fill: #ff0000; stroke: #ff0000"/>
     <use xlink:href="#m232818d787" x="264.03438" y="236.670239" style="fill: #ff0000; stroke: #ff0000"/>
     <use xlink:href="#m232818d787" x="267.313719" y="243.128196" style="fill: #ff0000; stroke: #ff0000"/>
     <use xlink:href="#m232818d787" x="270.593058" y="249.309924" style="fill: #ff0000; stroke: #ff0000"/>
     <use xlink:href="#m232818d787" x="273.872397" y="255.190531" style="fill: #ff0000; stroke: #ff0000"/>
     <use xlink:href="#m232818d787" x="277.151736" y="260.746339" style="fill: #ff0000; stroke: #ff0000"/>
     <use xlink:href="#m232818d787" x="280.431074" y="265.954977" style="fill: #ff0000; stroke: #ff0000"/>
     <use xlink:href="#m232818d787" x="283.710413" y="270.79547" style="fill: #ff0000; stroke: #ff0000"/>
     <use xlink:href="#m232818d787" x="286.989752" y="275.248328" style="fill: #ff0000; stroke: #ff0000"/>
     <use xlink:href="#m232818d787" x="290.269091" y="279.29562" style="fill: #ff0000; stroke: #ff0000"/>
     <use xlink:href="#m232818d787" x="293.54843" y="282.921051" style="fill: #ff0000; stroke: #ff0000"/>
     <use xlink:href="#m232818d787" x="296.827769" y="286.110021" style="fill: #ff0000; stroke: #ff0000"/>
     <use xlink:href="#m232818d787" x="300.107107" y="288.849689" style="fill: #ff0000; stroke: #ff0000"/>
     <use xlink:href="#m232818d787" x="303.386446" y="291.129024" style="fill: #ff0000; stroke: #ff0000"/>
     <use xlink:href="#m232818d787" x="306.665785" y="292.938849" style="fill: #ff0000; stroke: #ff0000"/>
     <use xlink:href="#m232818d787" x="309.945124" y="294.271874" style="fill: #ff0000; stroke: #ff0000"/>
     <use xlink:href="#m232818d787" x="313.224463" y="295.122733" style="fill: #ff0000; stroke: #ff0000"/>
     <use xlink:href="#m232818d787" x="316.503802" y="295.488" style="fill: #ff0000; stroke: #ff0000"/>
     <use xlink:href="#m232818d787" x="319.78314" y="295.366204" style="fill: #ff0000; stroke: #ff0000"/>
     <use xlink:href="#m232818d787" x="323.062479" y="294.757834" style="fill: #ff0000; stroke: #ff0000"/>
     <use xlink:href="#m232818d787" x="326.341818" y="293.665342" style="fill: #ff0000; stroke: #ff0000"/>
     <use xlink:href="#m232818d787" x="329.621157" y="292.093126" style="fill: #ff0000; stroke: #ff0000"/>
     <use xlink:href="#m232818d787" x="332.900496" y="290.047516" style="fill: #ff0000; stroke: #ff0000"/>
     <use xlink:href="#m232818d787" x="336.179835" y="287.53675" style="fill: #ff0000; stroke: #ff0000"/>
     <use xlink:href="#m232818d787" x="339.459174" y="284.570938" style="fill: #ff0000; stroke: #ff0000"/>
     <use xlink:href="#m232818d787" x="342.738512" y="281.162021" style="fill: #ff0000; stroke: #ff0000"/>
     <use xlink:href="#m232818d787" x="346.017851" y="277.323727" style="fill: #ff0000; stroke: #ff0000"/>
     <use xlink:href="#m232818d787" x="349.29719" y="273.071511" style="fill: #ff0000; stroke: #ff0000"/>
     <use xlink:href="#m232818d787" x="352.576529" y="268.422495" style="fill: #ff0000; stroke: #ff0000"/>
     <use xlink:href="#m232818d787" x="355.855868" y="263.395399" style="fill: #ff0000; stroke: #ff0000"/>
     <use xlink:href="#m232818d787" x="359.135207" y="258.010465" style="fill: #ff0000; stroke: #ff0000"/>
     <use xlink:href="#m232818d787" x="362.414545" y="252.289377" style="fill: #ff0000; stroke: #ff0000"/>
     <use xlink:href="#m232818d787" x="365.693884" y="246.255172" style="fill: #ff0000; stroke: #ff0000"/>
     <use xlink:href="#m232818d787" x="368.973223" y="239.932146" style="fill: #ff0000; stroke: #ff0000"/>
     <use xlink:href="#m232818d787" x="372.252562" y="233.345761" style="fill: #ff0000; stroke: #ff0000"/>
     <use xlink:href="#m232818d787" x="375.531901" y="226.522537" style="fill: #ff0000; stroke: #ff0000"/>
     <use xlink:href="#m232818d787" x="378.81124" y="219.48995" style="fill: #ff0000; stroke: #ff0000"/>
     <use xlink:href="#m232818d787" x="382.090579" y="212.276317" style="fill: #ff0000; stroke: #ff0000"/>
     <use xlink:href="#m232818d787" x="385.369917" y="204.910685" style="fill: #ff0000; stroke: #ff0000"/>
     <use xlink:href="#m232818d787" x="388.649256" y="197.422712" style="fill: #ff0000; stroke: #ff0000"/>
     <use xlink:href="#m232818d787" x="391.928595" y="189.842551" style="fill: #ff0000; stroke: #ff0000"/>
     <use xlink:href="#m232818d787" x="395.207934" y="182.200723" style="fill: #ff0000; stroke: #ff0000"/>
     <use xlink:href="#m232818d787" x="398.487273" y="174.528" style="fill: #ff0000; stroke: #ff0000"/>
    </g>
   </g>
   <g id="patch_3">
    <path d="M 57.6 307.584 
L 57.6 41.472 
" style="fill: none; stroke: #000000; stroke-width: 0.8; stroke-linejoin: miter; stroke-linecap: square"/>
   </g>
   <g id="patch_4">
    <path d="M 414.72 307.584 
L 414.72 41.472 
" style="fill: none; stroke: #000000; stroke-width: 0.8; stroke-linejoin: miter; stroke-linecap: square"/>
   </g>
   <g id="patch_5">
    <path d="M 57.6 307.584 
L 414.72 307.584 
" style="fill: none; stroke: #000000; stroke-width: 0.8; stroke-linejoin: miter; stroke-linecap: square"/>
   </g>
   <g id="patch_6">
    <path d="M 57.6 41.472 
L 414.72 41.472 
" style="fill: none; stroke: #000000; stroke-width: 0.8; stroke-linejoin: miter; stroke-linecap: square"/>
   </g>
  </g>
 </g>
 <defs>
  <clipPath id="pb09d5f542a">
   <rect x="57.6" y="41.472" width="357.12" height="266.112"/>
  </clipPath>
 </defs>
</svg>
